<svg width="50" height="50" viewBox="0 0 50 50" fill="none" xmlns="http://www.w3.org/2000/svg">
<path fill-rule="evenodd" clip-rule="evenodd" d="M29.5 11.25C29.5 9.86929 28.3807 8.75 27 8.75H7.5C6.11929 8.75 5 7.63071 5 6.25V3.75C5 2.36929 6.11929 1.25 7.5 1.25L29.5 1.25C33.6421 1.25 37 4.60786 37 8.75V17.25C37 18.3546 37.8954 19.25 39 19.25C42.3137 19.25 45 21.9363 45 25.25V41.25C45 45.3921 41.6421 48.75 37.5 48.75H7.5C6.11929 48.75 5 47.6307 5 46.25V43.75C5 42.3693 6.11929 41.25 7.5 41.25H35C36.3807 41.25 37.5 40.1307 37.5 38.75V29.25C37.5 27.8693 36.3807 26.75 35 26.75H15.75C14.3693 26.75 13.25 25.6307 13.25 24.25V21.75C13.25 20.3693 14.3693 19.25 15.75 19.25H27C28.3807 19.25 29.5 18.1307 29.5 16.75V11.25Z" fill="#393939"/>
</svg>
